<?xml version="1.0" standalone="no"?>
<svg xmlns:xlink="http://www.w3.org/1999/xlink" id="wave" style="transform:rotate(180deg); transition: 0.3s" viewBox="0 0 1440 180" version="1.1" xmlns="http://www.w3.org/2000/svg"><defs><linearGradient id="sw-gradient-0" x1="0" x2="0" y1="1" y2="0"><stop stop-color="rgba(9, 93, 156, 1)" offset="0%"/><stop stop-color="rgba(13, 208, 228, 1)" offset="100%"/></linearGradient></defs><path style="transform:translate(0, 0px); opacity:1" fill="url(#sw-gradient-0)" d="M0,126L26.7,129C53.3,132,107,138,160,135C213.3,132,267,120,320,99C373.3,78,427,48,480,33C533.3,18,587,18,640,39C693.3,60,747,102,800,105C853.3,108,907,72,960,63C1013.3,54,1067,72,1120,66C1173.3,60,1227,30,1280,27C1333.3,24,1387,48,1440,57C1493.3,66,1547,60,1600,63C1653.3,66,1707,78,1760,72C1813.3,66,1867,42,1920,42C1973.3,42,2027,66,2080,72C2133.3,78,2187,66,2240,57C2293.3,48,2347,42,2400,51C2453.3,60,2507,84,2560,87C2613.3,90,2667,72,2720,54C2773.3,36,2827,18,2880,27C2933.3,36,2987,72,3040,84C3093.3,96,3147,84,3200,75C3253.3,66,3307,60,3360,51C3413.3,42,3467,30,3520,30C3573.3,30,3627,42,3680,60C3733.3,78,3787,102,3813,114L3840,126L3840,180L3813.3,180C3786.7,180,3733,180,3680,180C3626.7,180,3573,180,3520,180C3466.7,180,3413,180,3360,180C3306.7,180,3253,180,3200,180C3146.7,180,3093,180,3040,180C2986.7,180,2933,180,2880,180C2826.7,180,2773,180,2720,180C2666.7,180,2613,180,2560,180C2506.7,180,2453,180,2400,180C2346.7,180,2293,180,2240,180C2186.7,180,2133,180,2080,180C2026.7,180,1973,180,1920,180C1866.7,180,1813,180,1760,180C1706.7,180,1653,180,1600,180C1546.7,180,1493,180,1440,180C1386.7,180,1333,180,1280,180C1226.7,180,1173,180,1120,180C1066.7,180,1013,180,960,180C906.7,180,853,180,800,180C746.7,180,693,180,640,180C586.7,180,533,180,480,180C426.7,180,373,180,320,180C266.7,180,213,180,160,180C106.7,180,53,180,27,180L0,180Z"/><defs><linearGradient id="sw-gradient-1" x1="0" x2="0" y1="1" y2="0"><stop stop-color="rgba(9, 93, 156, 1)" offset="0%"/><stop stop-color="rgba(13, 208, 228, 1)" offset="100%"/></linearGradient></defs><path style="transform:translate(0, 50px); opacity:0.9" fill="url(#sw-gradient-1)" d="M0,0L26.7,12C53.3,24,107,48,160,69C213.3,90,267,108,320,117C373.3,126,427,126,480,114C533.3,102,587,78,640,63C693.3,48,747,42,800,33C853.3,24,907,12,960,6C1013.3,0,1067,0,1120,6C1173.3,12,1227,24,1280,24C1333.3,24,1387,12,1440,24C1493.3,36,1547,72,1600,99C1653.3,126,1707,144,1760,138C1813.3,132,1867,102,1920,78C1973.3,54,2027,36,2080,33C2133.3,30,2187,42,2240,51C2293.3,60,2347,66,2400,84C2453.3,102,2507,132,2560,126C2613.3,120,2667,78,2720,54C2773.3,30,2827,24,2880,21C2933.3,18,2987,18,3040,30C3093.3,42,3147,66,3200,87C3253.3,108,3307,126,3360,123C3413.3,120,3467,96,3520,87C3573.3,78,3627,84,3680,84C3733.3,84,3787,78,3813,75L3840,72L3840,180L3813.3,180C3786.7,180,3733,180,3680,180C3626.7,180,3573,180,3520,180C3466.7,180,3413,180,3360,180C3306.7,180,3253,180,3200,180C3146.7,180,3093,180,3040,180C2986.7,180,2933,180,2880,180C2826.7,180,2773,180,2720,180C2666.7,180,2613,180,2560,180C2506.7,180,2453,180,2400,180C2346.7,180,2293,180,2240,180C2186.7,180,2133,180,2080,180C2026.7,180,1973,180,1920,180C1866.7,180,1813,180,1760,180C1706.7,180,1653,180,1600,180C1546.7,180,1493,180,1440,180C1386.7,180,1333,180,1280,180C1226.7,180,1173,180,1120,180C1066.7,180,1013,180,960,180C906.7,180,853,180,800,180C746.7,180,693,180,640,180C586.7,180,533,180,480,180C426.7,180,373,180,320,180C266.7,180,213,180,160,180C106.7,180,53,180,27,180L0,180Z"/></svg>