<?xml version="1.0" standalone="no"?>
<svg xmlns:xlink="http://www.w3.org/1999/xlink" id="wave" style="transform:rotate(180deg); transition: 0.3s" viewBox="0 0 1440 490" version="1.1" xmlns="http://www.w3.org/2000/svg"><defs><linearGradient id="sw-gradient-0" x1="0" x2="0" y1="1" y2="0"><stop stop-color="rgba(13, 208, 228, 1)" offset="0%"/><stop stop-color="rgba(9, 93, 156, 1)" offset="100%"/></linearGradient></defs><path style="transform:translate(0, 0px); opacity:1" fill="url(#sw-gradient-0)" d="M0,49L60,106.2C120,163,240,278,360,277.7C480,278,600,163,720,98C840,33,960,16,1080,65.3C1200,114,1320,229,1440,228.7C1560,229,1680,114,1800,65.3C1920,16,2040,33,2160,65.3C2280,98,2400,147,2520,147C2640,147,2760,98,2880,81.7C3000,65,3120,82,3240,114.3C3360,147,3480,196,3600,196C3720,196,3840,147,3960,130.7C4080,114,4200,131,4320,187.8C4440,245,4560,343,4680,326.7C4800,310,4920,180,5040,114.3C5160,49,5280,49,5400,106.2C5520,163,5640,278,5760,302.2C5880,327,6000,261,6120,228.7C6240,196,6360,196,6480,212.3C6600,229,6720,261,6840,285.8C6960,310,7080,327,7200,302.2C7320,278,7440,212,7560,212.3C7680,212,7800,278,7920,285.8C8040,294,8160,245,8280,196C8400,147,8520,98,8580,73.5L8640,49L8640,490L8580,490C8520,490,8400,490,8280,490C8160,490,8040,490,7920,490C7800,490,7680,490,7560,490C7440,490,7320,490,7200,490C7080,490,6960,490,6840,490C6720,490,6600,490,6480,490C6360,490,6240,490,6120,490C6000,490,5880,490,5760,490C5640,490,5520,490,5400,490C5280,490,5160,490,5040,490C4920,490,4800,490,4680,490C4560,490,4440,490,4320,490C4200,490,4080,490,3960,490C3840,490,3720,490,3600,490C3480,490,3360,490,3240,490C3120,490,3000,490,2880,490C2760,490,2640,490,2520,490C2400,490,2280,490,2160,490C2040,490,1920,490,1800,490C1680,490,1560,490,1440,490C1320,490,1200,490,1080,490C960,490,840,490,720,490C600,490,480,490,360,490C240,490,120,490,60,490L0,490Z"/><defs><linearGradient id="sw-gradient-1" x1="0" x2="0" y1="1" y2="0"><stop stop-color="rgba(13, 208, 228, 1)" offset="0%"/><stop stop-color="rgba(9, 93, 156, 1)" offset="100%"/></linearGradient></defs><path style="transform:translate(0, 50px); opacity:0.9" fill="url(#sw-gradient-1)" d="M0,196L60,171.5C120,147,240,98,360,98C480,98,600,147,720,204.2C840,261,960,327,1080,310.3C1200,294,1320,196,1440,130.7C1560,65,1680,33,1800,49C1920,65,2040,131,2160,187.8C2280,245,2400,294,2520,269.5C2640,245,2760,147,2880,147C3000,147,3120,245,3240,310.3C3360,376,3480,408,3600,383.8C3720,359,3840,278,3960,253.2C4080,229,4200,261,4320,277.7C4440,294,4560,294,4680,261.3C4800,229,4920,163,5040,114.3C5160,65,5280,33,5400,89.8C5520,147,5640,294,5760,343C5880,392,6000,343,6120,318.5C6240,294,6360,294,6480,261.3C6600,229,6720,163,6840,163.3C6960,163,7080,229,7200,228.7C7320,229,7440,163,7560,122.5C7680,82,7800,65,7920,89.8C8040,114,8160,180,8280,212.3C8400,245,8520,245,8580,245L8640,245L8640,490L8580,490C8520,490,8400,490,8280,490C8160,490,8040,490,7920,490C7800,490,7680,490,7560,490C7440,490,7320,490,7200,490C7080,490,6960,490,6840,490C6720,490,6600,490,6480,490C6360,490,6240,490,6120,490C6000,490,5880,490,5760,490C5640,490,5520,490,5400,490C5280,490,5160,490,5040,490C4920,490,4800,490,4680,490C4560,490,4440,490,4320,490C4200,490,4080,490,3960,490C3840,490,3720,490,3600,490C3480,490,3360,490,3240,490C3120,490,3000,490,2880,490C2760,490,2640,490,2520,490C2400,490,2280,490,2160,490C2040,490,1920,490,1800,490C1680,490,1560,490,1440,490C1320,490,1200,490,1080,490C960,490,840,490,720,490C600,490,480,490,360,490C240,490,120,490,60,490L0,490Z"/><defs><linearGradient id="sw-gradient-2" x1="0" x2="0" y1="1" y2="0"><stop stop-color="rgba(13, 208, 228, 1)" offset="0%"/><stop stop-color="rgba(9, 93, 156, 1)" offset="100%"/></linearGradient></defs><path style="transform:translate(0, 100px); opacity:0.8" fill="url(#sw-gradient-2)" d="M0,49L60,114.3C120,180,240,310,360,343C480,376,600,310,720,245C840,180,960,114,1080,122.5C1200,131,1320,212,1440,269.5C1560,327,1680,359,1800,351.2C1920,343,2040,294,2160,277.7C2280,261,2400,278,2520,277.7C2640,278,2760,261,2880,236.8C3000,212,3120,180,3240,187.8C3360,196,3480,245,3600,269.5C3720,294,3840,294,3960,318.5C4080,343,4200,392,4320,375.7C4440,359,4560,278,4680,269.5C4800,261,4920,327,5040,294C5160,261,5280,131,5400,122.5C5520,114,5640,229,5760,269.5C5880,310,6000,278,6120,277.7C6240,278,6360,310,6480,343C6600,376,6720,408,6840,416.5C6960,425,7080,408,7200,383.8C7320,359,7440,327,7560,334.8C7680,343,7800,392,7920,408.3C8040,425,8160,408,8280,343C8400,278,8520,163,8580,106.2L8640,49L8640,490L8580,490C8520,490,8400,490,8280,490C8160,490,8040,490,7920,490C7800,490,7680,490,7560,490C7440,490,7320,490,7200,490C7080,490,6960,490,6840,490C6720,490,6600,490,6480,490C6360,490,6240,490,6120,490C6000,490,5880,490,5760,490C5640,490,5520,490,5400,490C5280,490,5160,490,5040,490C4920,490,4800,490,4680,490C4560,490,4440,490,4320,490C4200,490,4080,490,3960,490C3840,490,3720,490,3600,490C3480,490,3360,490,3240,490C3120,490,3000,490,2880,490C2760,490,2640,490,2520,490C2400,490,2280,490,2160,490C2040,490,1920,490,1800,490C1680,490,1560,490,1440,490C1320,490,1200,490,1080,490C960,490,840,490,720,490C600,490,480,490,360,490C240,490,120,490,60,490L0,490Z"/></svg>